<?xml version="1.0" standalone="no"?>
<!DOCTYPE svg PUBLIC "-//W3C//DTD SVG 20010904//EN"
 "http://www.w3.org/TR/2001/REC-SVG-20010904/DTD/svg10.dtd">
<svg version="1.0" xmlns="http://www.w3.org/2000/svg"
 width="230.000000pt" height="228.000000pt" viewBox="0 0 230.000000 228.000000"
 preserveAspectRatio="xMidYMid meet">

<g transform="translate(0.000000,228.000000) scale(0.100000,-0.100000)"
fill="#000000" stroke="none">
<path d="M1091 2256 c-7 -8 -11 -25 -9 -38 2 -18 9 -23 32 -23 36 0 56 27 40
53 -14 22 -48 27 -63 8z m54 -21 c0 -22 -31 -33 -47 -17 -17 17 -1 44 24 40
15 -2 23 -10 23 -23z"/>
<path d="M1252 2204 c-12 -8 -22 -24 -22 -34 0 -23 48 -62 64 -53 6 4 1 10
-14 13 -19 4 -26 13 -28 37 -3 26 1 33 25 41 15 6 21 11 13 11 -9 1 -26 -6
-38 -15z"/>
<path d="M1314 2164 c0 -21 3 -30 8 -22 10 16 10 45 1 51 -5 3 -8 -10 -9 -29z"/>
<path d="M1092 2107 c-28 -29 -29 -86 -3 -118 16 -20 28 -24 77 -24 54 0 58
-2 75 -32 49 -87 62 -221 33 -323 -8 -30 -19 -71 -23 -90 -4 -19 -20 -61 -34
-93 -15 -32 -27 -68 -26 -80 0 -21 1 -21 11 3 6 14 19 44 29 68 27 60 79 262
79 305 0 25 7 41 23 54 12 11 36 34 52 53 l30 34 -33 -27 c-47 -38 -56 -35
-48 16 15 95 75 211 106 205 12 -3 15 -16 13 -63 -2 -42 0 -54 7 -40 10 23 13
96 4 119 -3 9 -12 16 -20 16 -20 0 -82 -100 -110 -177 -13 -36 -26 -68 -28
-70 -2 -2 -14 18 -25 44 -12 26 -29 62 -38 80 -10 20 -14 45 -10 66 4 28 0 40
-23 66 -36 39 -86 43 -118 8z m107 -18 c12 -12 20 -28 17 -36 -3 -8 -6 -19 -6
-24 0 -18 -41 -49 -64 -49 -48 0 -73 60 -46 111 15 26 69 25 99 -2z"/>
<path d="M966 1803 c-3 -4 -5 -29 -5 -57 1 -29 4 -39 6 -23 3 19 10 27 24 27
43 0 152 -131 169 -203 l8 -32 1 28 c1 17 -13 50 -33 81 -41 61 -161 188 -170
179z"/>
<path d="M971 1671 c-1 -35 53 -127 112 -188 27 -28 56 -61 64 -72 8 -12 18
-21 22 -21 13 0 19 45 11 87 l-8 38 -1 -42 c-1 -48 -20 -57 -44 -23 -8 11 -32
40 -55 64 -39 42 -77 106 -93 156 l-7 25 -1 -24z"/>
<path d="M1540 1661 c-53 -17 -210 -121 -210 -139 0 -5 -13 -21 -28 -38 -16
-16 -34 -44 -42 -62 -19 -47 -2 -54 68 -29 92 32 203 114 234 172 6 11 -13 -4
-43 -34 -78 -77 -229 -148 -229 -107 0 20 45 82 88 122 40 37 167 104 196 104
15 0 17 -6 12 -32 l-6 -33 20 33 c11 18 20 37 20 42 0 12 -44 12 -80 1z"/>
<path d="M397 1541 c-6 -17 -18 -31 -25 -31 -11 0 -13 -8 -8 -32 4 -18 9 -98
12 -178 4 -80 9 -150 13 -157 3 -6 6 73 6 176 0 191 7 227 39 215 26 -10 35
-55 35 -169 0 -121 8 -156 55 -250 14 -27 26 -55 26 -62 0 -6 5 -15 11 -19 16
-9 4 24 -42 124 -38 81 -39 84 -39 202 0 127 -12 174 -52 199 -17 11 -21 9
-31 -18z"/>
<path d="M1850 1539 c-7 -11 -9 -23 -6 -27 3 -3 6 0 6 6 0 7 11 12 24 12 31 0
36 -30 36 -229 0 -137 -2 -160 -21 -198 -12 -24 -19 -46 -17 -49 3 -2 15 18
27 45 17 41 23 82 30 221 7 142 11 174 26 190 10 11 26 20 35 20 14 0 18 -21
30 -139 11 -125 10 -176 -6 -229 -5 -14 -4 -15 4 -2 5 8 24 58 42 109 21 65
40 102 58 118 15 13 30 23 35 23 13 0 8 -72 -13 -170 -38 -186 -50 -229 -75
-273 -14 -25 -25 -48 -25 -52 0 -3 20 14 45 38 45 44 57 64 32 54 -16 -6 -17
-16 27 196 34 166 37 220 13 225 -21 4 -97 -72 -97 -98 0 -5 -4 -10 -10 -10
-12 0 -17 25 -25 120 -3 41 -8 83 -11 93 -8 26 -32 21 -61 -13 -28 -34 -39
-32 -48 10 -8 36 -39 41 -55 9z"/>
<path d="M297 1543 c-4 -3 -7 -15 -7 -27 0 -19 0 -19 20 2 11 12 20 24 20 27
0 7 -25 6 -33 -2z"/>
<path d="M1831 1484 c0 -11 3 -14 6 -6 3 7 2 16 -1 19 -3 4 -6 -2 -5 -13z"/>
<path d="M277 1425 c-10 -92 -20 -108 -47 -75 -11 14 -25 38 -32 53 -11 23
-18 27 -43 25 -28 -3 -30 -5 -27 -45 2 -23 7 -55 12 -70 7 -22 9 -14 7 35 -2
53 1 62 15 62 10 0 28 -19 43 -44 24 -41 39 -83 94 -260 26 -83 35 -101 72
-144 41 -47 36 -30 -11 35 -22 31 -40 62 -40 68 0 6 -12 49 -26 95 -26 82 -26
87 -14 180 7 52 10 109 8 125 -2 19 -6 5 -11 -40z"/>
<path d="M1827 1338 c8 -97 13 -99 13 -5 0 43 -4 77 -9 77 -6 0 -7 -30 -4 -72z"/>
<path d="M725 1289 c-15 -28 -15 -36 0 -101 9 -39 27 -91 40 -117 31 -60 31
-53 -5 49 -31 89 -39 164 -17 173 6 2 22 1 34 -4 30 -11 174 -299 215 -428 61
-194 62 -204 62 -401 0 -142 2 -172 9 -130 14 90 2 334 -21 415 -45 156 -98
289 -171 423 -87 160 -115 183 -146 121z"/>
<path d="M1173 1305 c-3 -9 -3 -18 -1 -21 3 -3 8 4 11 16 6 23 -1 27 -10 5z"/>
<path d="M1524 1312 c-47 -32 -216 -391 -253 -537 -40 -157 -52 -312 -32 -410
6 -29 9 3 10 110 1 153 11 220 51 350 54 176 185 441 230 465 10 5 26 7 35 4
24 -9 13 -87 -27 -195 -41 -116 -48 -139 -48 -174 0 -38 16 -55 50 -55 24 0
88 45 79 55 -3 2 -18 -7 -33 -20 -80 -69 -112 14 -56 140 19 41 54 149 64 196
4 18 -1 35 -15 53 -21 26 -36 31 -55 18z"/>
<path d="M950 1296 c0 -23 11 -46 22 -46 6 0 19 -10 29 -22 11 -11 19 -17 19
-11 0 5 -9 18 -20 28 -28 25 -25 45 5 45 14 0 25 5 25 10 0 6 -18 10 -40 10
-28 0 -40 -4 -40 -14z"/>
<path d="M1348 1283 c12 -2 22 -11 22 -19 0 -8 5 -12 10 -9 23 14 10 35 -22
34 -24 -1 -27 -3 -10 -6z"/>
<path d="M153 1254 c3 -17 9 -55 13 -85 4 -30 10 -58 14 -64 14 -18 15 -86 2
-94 -9 -6 9 -30 64 -84 43 -42 79 -76 80 -74 1 1 -17 23 -41 49 -24 26 -50 66
-58 90 -26 77 -46 152 -56 217 -6 35 -13 66 -17 70 -4 3 -4 -8 -1 -25z"/>
<path d="M1060 1266 c0 -2 8 -10 18 -17 15 -13 16 -12 3 4 -13 16 -21 21 -21
13z"/>
<path d="M1156 1245 c-4 -16 -12 -41 -16 -55 -9 -23 -40 -193 -40 -215 0 -6 3
-6 9 0 5 6 15 47 21 92 6 46 18 99 26 119 8 20 13 48 12 63 l-4 26 -8 -30z"/>
<path d="M1815 1225 c-4 -16 -26 -65 -47 -108 -22 -43 -38 -80 -36 -83 8 -7
100 195 95 208 -2 7 -8 0 -12 -17z"/>
<path d="M1327 1215 c-16 -14 -22 -25 -14 -25 7 0 24 11 37 25 30 32 14 32
-23 0z"/>
<path d="M1030 1202 c0 -13 68 -73 74 -64 6 10 1 61 -8 69 -3 3 -6 -3 -6 -15
0 -27 -14 -28 -40 -2 -11 11 -20 16 -20 12z"/>
<path d="M1185 1198 c-9 -26 -10 -57 -1 -60 5 -2 9 14 10 35 1 39 -1 46 -9 25z"/>
<path d="M1985 1078 c-14 -44 -51 -108 -75 -128 -21 -18 -50 -66 -50 -84 0
-15 6 -10 20 19 11 22 30 51 43 65 50 55 101 160 85 175 -3 3 -13 -18 -23 -47z"/>
<path d="M16 1094 c-3 -9 3 -27 16 -42 21 -26 21 -23 1 26 -3 6 2 12 11 12 9
0 16 5 16 10 0 16 -37 11 -44 -6z"/>
<path d="M2240 1102 c0 -4 -13 -13 -30 -20 -16 -8 -30 -18 -30 -24 0 -6 8 -4
18 4 27 24 72 32 72 13 0 -8 -4 -15 -10 -15 -5 0 -10 -7 -10 -15 0 -8 4 -15 9
-15 12 0 34 57 26 69 -7 12 -45 15 -45 3z"/>
<path d="M80 1080 c0 -5 5 -10 11 -10 5 0 7 5 4 10 -3 6 -8 10 -11 10 -2 0 -4
-4 -4 -10z"/>
<path d="M421 1085 c0 -5 15 -39 33 -74 23 -44 35 -60 41 -51 5 8 2 17 -7 24
-8 6 -27 34 -41 61 -14 28 -26 46 -26 40z"/>
<path d="M135 1040 c3 -5 8 -10 11 -10 2 0 4 5 4 10 0 6 -5 10 -11 10 -5 0 -7
-4 -4 -10z"/>
<path d="M1840 1021 c-6 -16 -18 -32 -26 -35 -13 -5 -9 -36 5 -36 7 0 42 92
37 97 -2 2 -9 -10 -16 -26z"/>
<path d="M609 988 c19 -21 37 -36 39 -33 3 3 3 6 1 8 -2 1 -20 15 -39 32 l-35
30 34 -37z"/>
<path d="M791 1003 c0 -4 4 -17 9 -28 8 -19 9 -19 9 2 1 12 -3 25 -9 28 -5 3
-10 3 -9 -2z"/>
<path d="M1676 984 c-14 -15 -24 -29 -22 -31 2 -2 16 8 31 22 14 15 24 29 22
31 -2 2 -16 -8 -31 -22z"/>
<path d="M120 943 c0 -6 8 -17 18 -24 16 -13 16 -13 2 6 -8 11 -16 22 -17 24
-2 2 -3 0 -3 -6z"/>
<path d="M699 911 c63 -60 121 -50 120 19 -1 22 -2 21 -10 -7 -8 -29 -14 -33
-42 -33 -21 0 -46 11 -72 31 -40 31 -40 30 4 -10z"/>
<path d="M2156 913 c-6 -14 -5 -15 5 -6 7 7 10 15 7 18 -3 3 -9 -2 -12 -12z"/>
<path d="M424 886 c8 -26 13 -31 19 -21 5 10 1 22 -11 35 -19 21 -19 21 -8
-14z"/>
<path d="M170 876 c8 -11 18 -25 22 -31 22 -31 58 -67 49 -50 -5 11 -27 39
-48 61 -21 22 -31 31 -23 20z"/>
<path d="M2115 863 c-11 -14 -32 -42 -47 -61 -31 -39 -38 -57 -10 -26 36 40
84 105 80 109 -2 2 -13 -8 -23 -22z"/>
<path d="M1935 820 c-3 -5 -1 -10 4 -10 6 0 11 5 11 10 0 6 -2 10 -4 10 -3 0
-8 -4 -11 -10z"/>
<path d="M1884 761 c-24 -29 -47 -71 -40 -71 6 0 68 92 64 95 -2 1 -12 -9 -24
-24z"/>
<path d="M260 763 c0 -5 10 -18 23 -29 l22 -19 -20 25 c-11 14 -21 27 -22 29
-2 2 -3 0 -3 -6z"/>
<path d="M606 708 c15 -61 24 -84 24 -57 0 26 -25 119 -31 119 -4 0 -1 -28 7
-62z"/>
<path d="M1696 754 c-9 -23 -7 -36 3 -30 12 8 21 46 11 46 -4 0 -11 -7 -14
-16z"/>
<path d="M422 740 c17 -31 38 -54 38 -41 0 5 -11 23 -26 38 -23 26 -24 26 -12
3z"/>
<path d="M1951 664 c-28 -31 -51 -61 -51 -66 0 -11 11 0 68 70 58 69 48 67
-17 -4z"/>
<path d="M1681 683 c0 -12 -4 -30 -7 -40 -5 -17 -5 -17 6 0 6 10 9 28 7 40 -4
22 -4 22 -6 0z"/>
<path d="M330 681 c0 -6 4 -13 10 -16 6 -3 7 1 4 9 -7 18 -14 21 -14 7z"/>
<path d="M386 613 c50 -68 78 -102 133 -160 43 -46 48 -44 6 3 -5 6 -26 30
-45 54 -19 24 -47 57 -62 74 -15 17 -30 39 -34 49 -3 9 -10 17 -16 17 -6 0 2
-17 18 -37z"/>
<path d="M630 620 c0 -27 39 -64 113 -108 44 -26 93 -59 108 -74 27 -25 38
-26 21 -2 -8 12 -114 83 -154 103 -16 8 -28 18 -28 23 0 4 -6 8 -14 8 -8 0
-19 14 -25 30 -10 30 -21 40 -21 20z"/>
<path d="M1644 585 c-8 -13 -40 -38 -71 -55 -30 -17 -53 -34 -50 -37 3 -3 19
4 35 16 17 12 35 21 40 21 9 0 72 65 72 75 0 12 -11 3 -26 -20z"/>
<path d="M1872 570 c-7 -11 -37 -50 -69 -87 -37 -45 -45 -58 -22 -38 19 17 35
33 37 37 2 3 12 17 24 30 29 33 51 68 46 73 -2 2 -9 -5 -16 -15z"/>
<path d="M1453 449 c-58 -55 -54 -62 5 -9 26 24 49 45 51 47 2 2 0 3 -5 3 -5
0 -28 -19 -51 -41z"/>
<path d="M580 381 c0 -5 7 -12 16 -15 14 -5 15 -4 4 9 -14 17 -20 19 -20 6z"/>
<path d="M1251 293 c-1 -36 28 -255 35 -262 12 -12 10 15 -7 139 -21 146 -27
173 -28 123z"/>
<path d="M1600 270 c-30 -28 -66 -55 -79 -61 -13 -5 -21 -12 -18 -15 3 -3 14
-1 25 5 32 17 42 13 43 -16 0 -16 6 -46 13 -68 l13 -40 -5 62 c-6 78 1 104 39
148 17 19 29 35 28 35 -2 0 -29 -23 -59 -50z"/>
<path d="M660 301 c0 -5 7 -12 16 -15 14 -5 15 -4 4 9 -14 17 -20 19 -20 6z"/>
<path d="M710 250 c12 -22 8 -122 -6 -167 -4 -15 -4 -15 4 -3 5 8 13 36 16 62
4 26 14 54 22 62 19 20 18 21 -17 47 l-31 22 12 -23z"/>
<path d="M1038 255 c-9 -28 -31 -225 -26 -230 8 -8 40 189 36 220 -3 25 -5 27
-10 10z"/>
<path d="M786 201 c16 -17 67 -29 89 -20 15 6 11 8 -18 8 -21 1 -48 6 -60 12
-16 9 -19 9 -11 0z"/>
<path d="M905 200 c-3 -6 1 -7 9 -4 18 7 21 14 7 14 -6 0 -13 -4 -16 -10z"/>
<path d="M1425 180 c8 -13 35 -13 55 0 11 7 5 10 -23 10 -23 0 -36 -4 -32 -10z"/>
</g>
</svg>
